<svg xmlns="http://www.w3.org/2000/svg" width="20" height="20" viewBox="0 0 20 20">
  <g id="Group_2333" data-name="Group 2333" transform="translate(0)">
    <g id="Group_2332" data-name="Group 2332">
      <g id="Group_2167" data-name="Group 2167">
        <g id="noun_phone_call_3354658" data-name="noun_phone call_3354658">
          <g id="Group_2170" data-name="Group 2170">
            <g id="phone">
              <rect id="Rectangle_906" data-name="Rectangle 906" width="20" height="20" transform="translate(0)" fill="#2b0157" opacity="0"/>
              <path id="Path_5117" data-name="Path 5117" d="M11.98,16.669a4.644,4.644,0,0,1-1.593-.285,16.99,16.99,0,0,1-6.169-3.932A16.989,16.989,0,0,1,.285,6.282,4.61,4.61,0,0,1,.05,4.016,4.728,4.728,0,0,1,2.48.555,4.641,4.641,0,0,1,4.7,0a.521.521,0,0,1,.509.412l.818,3.815a.521.521,0,0,1-.141.477l-1.4,1.4a13.711,13.711,0,0,0,6.077,6.077l1.4-1.4a.521.521,0,0,1,.477-.141l3.815.818a.521.521,0,0,1,.412.509,4.641,4.641,0,0,1-.555,2.222,4.728,4.728,0,0,1-3.461,2.43,4.633,4.633,0,0,1-.673.049ZM4.286,1.065A3.65,3.65,0,0,0,1.264,5.927,15.8,15.8,0,0,0,10.743,15.4,3.65,3.65,0,0,0,15.6,12.383l-3.1-.665-1.459,1.459a.521.521,0,0,1-.59.1A14.749,14.749,0,0,1,3.389,6.217a.521.521,0,0,1,.1-.59L4.951,4.168Z" transform="translate(1.499 1.5)" fill="#fff" stroke="#fff" stroke-width="0.4"/>
            </g>
          </g>
        </g>
      </g>
    </g>
  </g>
</svg>
