<svg xmlns="http://www.w3.org/2000/svg" width="20" height="20" viewBox="0 0 20 20">
  <g id="Group_2871" data-name="Group 2871" transform="translate(-53.302 -3995)">
    <rect id="Rectangle_905" data-name="Rectangle 905" width="20" height="20" transform="translate(53.302 3995)" fill="#fff" opacity="0"/>
    <path id="location-pin" d="M9.87,0A6.9,6.9,0,0,0,3,6.92c0,5.422,6.224,11.021,6.489,11.256a.574.574,0,0,0,.762,0c.265-.236,6.489-5.834,6.489-11.257A6.9,6.9,0,0,0,9.87,0Zm0,10.687A3.817,3.817,0,1,1,13.687,6.87,3.821,3.821,0,0,1,9.87,10.687Z" transform="translate(53.431 3996)" fill="#939aad"/>
  </g>
</svg>
