<svg xmlns="http://www.w3.org/2000/svg" width="24" height="24" viewBox="0 0 24 24">
  <g id="Group_2951" data-name="Group 2951" transform="translate(-614 -717.75)">
    <rect id="Rectangle_49" data-name="Rectangle 49" width="24" height="24" transform="translate(614 717.75)" fill="#fff" opacity="0"/>
    <path id="Path_5082" data-name="Path 5082" d="M9.532,25.057H27.726a.362.362,0,0,0,.366-.357V22.953a.362.362,0,0,0-.366-.357H25.348V14.29h2.378a.362.362,0,0,0,.366-.357V11.345a.358.358,0,0,0-.144-.284l-9.1-6.75a.383.383,0,0,0-.442,0l-9.1,6.751a.358.358,0,0,0-.142.283v2.588a.362.362,0,0,0,.365.357h2.378V22.6H9.532a.362.362,0,0,0-.365.357V24.7A.362.362,0,0,0,9.532,25.057ZM9.9,13.576V11.522l8.731-6.479,8.731,6.479v2.054H9.9Zm14.719.713V22.6H22.171V14.29Zm-3.177,0V22.6H18.995V14.29Zm-3.176,0V22.6H15.818V14.29Zm-3.176,0V22.6H12.642V14.29ZM9.9,23.309H27.361v1.035H9.9Z" transform="translate(607.409 715.021)" fill="#fff" stroke="#fff" stroke-width="0.8"/>
  </g>
</svg>
