<svg id="Group_2861" data-name="Group 2861" xmlns="http://www.w3.org/2000/svg" width="20" height="20" viewBox="0 0 20 20">
  <rect id="Rectangle_905" data-name="Rectangle 905" width="20" height="20" fill="#fff" opacity="0"/>
  <g id="home-3" transform="translate(2 1)">
    <g id="Group_2860" data-name="Group 2860">
      <path id="Path_5119" data-name="Path 5119" d="M26.613,7.587,18.925.164a.577.577,0,0,0-.805,0L10.433,7.586a.58.58,0,0,0,.4,1h1.022V16.7a.58.58,0,0,0,.58.58h4.057a.58.58,0,0,0,.58-.58V12.061h2.9V16.7a.58.58,0,0,0,.58.58h4.057a.58.58,0,0,0,.58-.58V8.583H26.21a.58.58,0,0,0,.4-1ZM25.188,8a.58.58,0,0,0-.58.58V16.7H20.552V12.061a.58.58,0,0,0-.58-.58h-2.9a.58.58,0,0,0-.58.58V16.7H12.437V8.583a.58.58,0,0,0-.58-.58l-.8-.193L18.523.581l7.364,7.313-.7.109Z" transform="translate(-10.256 -0.001)" fill="#939aad" stroke="#939aad" stroke-width="1"/>
    </g>
  </g>
</svg>
