<svg id="email" xmlns="http://www.w3.org/2000/svg" width="20" height="20" viewBox="0 0 20 20">
  <g id="Group_2859" data-name="Group 2859">
    <rect id="Rectangle_907" data-name="Rectangle 907" width="20" height="20" fill="#fff" opacity="0"/>
    <path id="Path_5118" data-name="Path 5118" d="M15.371,61H1.481A1.484,1.484,0,0,0,0,62.481v9.874a1.484,1.484,0,0,0,1.481,1.481h13.89a1.484,1.484,0,0,0,1.481-1.481V62.481A1.484,1.484,0,0,0,15.371,61Zm-.2.987L8.458,68.7,1.69,61.987ZM.987,72.151v-9.47L5.743,67.4Zm.7.7,4.758-4.758,1.667,1.653a.494.494,0,0,0,.7,0l1.626-1.626,4.733,4.733Zm14.179-.7-4.733-4.733,4.733-4.733Z" transform="translate(1.5 -57.5)" fill="#fff" stroke="#fff" stroke-width="0.4"/>
  </g>
</svg>
