<svg xmlns="http://www.w3.org/2000/svg" width="24" height="24" viewBox="0 0 24 24">
  <g id="Group_2950" data-name="Group 2950" transform="translate(-614 -677.75)">
    <rect id="Rectangle_49" data-name="Rectangle 49" width="24" height="24" transform="translate(614 677.75)" fill="#fff" opacity="0"/>
    <path id="Path_5081" data-name="Path 5081" d="M232.363,128.761h9.461a.767.767,0,0,1,.651,1.169l-4.212,7.954h3.561a.767.767,0,0,1,.482,1.362L229.8,150.407a.767.767,0,0,1-1.217-.862l3.363-10.027h-3.06a.767.767,0,0,1-.7-1.086l3.462-9.175A.767.767,0,0,1,232.363,128.761Zm8.19,1.532h-7.663l-2.9,7.693H233a.766.766,0,0,1,.724,1.009l-2.8,8.352,8.888-7.93h-2.824a.767.767,0,0,1-.677-1.122Z" transform="translate(390.787 550.092)" fill="#fff"/>
  </g>
</svg>
