<svg xmlns="http://www.w3.org/2000/svg" xmlns:xlink="http://www.w3.org/1999/xlink" width="303" height="167" viewBox="0 0 303 167">
  <defs>
    <clipPath id="clip-path">
      <rect width="303" height="167" fill="none"/>
    </clipPath>
  </defs>
  <g id="Repeat_Grid_1" data-name="Repeat Grid 1" clip-path="url(#clip-path)">
    <g transform="translate(12280 -3814)">
      <circle id="Ellipse_91" data-name="Ellipse 91" cx="4" cy="4" r="4" transform="translate(-12280 3814)" fill="#eceaf0"/>
    </g>
    <g transform="translate(12304 -3814)">
      <circle id="Ellipse_91-2" data-name="Ellipse 91" cx="4" cy="4" r="4" transform="translate(-12280 3814)" fill="#eceaf0"/>
    </g>
    <g transform="translate(12328 -3814)">
      <circle id="Ellipse_91-3" data-name="Ellipse 91" cx="4" cy="4" r="4" transform="translate(-12280 3814)" fill="#eceaf0"/>
    </g>
    <g transform="translate(12352 -3814)">
      <circle id="Ellipse_91-4" data-name="Ellipse 91" cx="4" cy="4" r="4" transform="translate(-12280 3814)" fill="#eceaf0"/>
    </g>
    <g transform="translate(12376 -3814)">
      <circle id="Ellipse_91-5" data-name="Ellipse 91" cx="4" cy="4" r="4" transform="translate(-12280 3814)" fill="#eceaf0"/>
    </g>
    <g transform="translate(12400 -3814)">
      <circle id="Ellipse_91-6" data-name="Ellipse 91" cx="4" cy="4" r="4" transform="translate(-12280 3814)" fill="#eceaf0"/>
    </g>
    <g transform="translate(12424 -3814)">
      <circle id="Ellipse_91-7" data-name="Ellipse 91" cx="4" cy="4" r="4" transform="translate(-12280 3814)" fill="#eceaf0"/>
    </g>
    <g transform="translate(12448 -3814)">
      <circle id="Ellipse_91-8" data-name="Ellipse 91" cx="4" cy="4" r="4" transform="translate(-12280 3814)" fill="#eceaf0"/>
    </g>
    <g transform="translate(12472 -3814)">
      <circle id="Ellipse_91-9" data-name="Ellipse 91" cx="4" cy="4" r="4" transform="translate(-12280 3814)" fill="#eceaf0"/>
    </g>
    <g transform="translate(12496 -3814)">
      <circle id="Ellipse_91-10" data-name="Ellipse 91" cx="4" cy="4" r="4" transform="translate(-12280 3814)" fill="#eceaf0"/>
    </g>
    <g transform="translate(12520 -3814)">
      <circle id="Ellipse_91-11" data-name="Ellipse 91" cx="4" cy="4" r="4" transform="translate(-12280 3814)" fill="#eceaf0"/>
    </g>
    <g transform="translate(12544 -3814)">
      <circle id="Ellipse_91-12" data-name="Ellipse 91" cx="4" cy="4" r="4" transform="translate(-12280 3814)" fill="#eceaf0"/>
    </g>
    <g transform="translate(12568 -3814)">
      <circle id="Ellipse_91-13" data-name="Ellipse 91" cx="4" cy="4" r="4" transform="translate(-12280 3814)" fill="#eceaf0"/>
    </g>
    <g transform="translate(12280 -3790)">
      <circle id="Ellipse_91-14" data-name="Ellipse 91" cx="4" cy="4" r="4" transform="translate(-12280 3814)" fill="#eceaf0"/>
    </g>
    <g transform="translate(12304 -3790)">
      <circle id="Ellipse_91-15" data-name="Ellipse 91" cx="4" cy="4" r="4" transform="translate(-12280 3814)" fill="#eceaf0"/>
    </g>
    <g transform="translate(12328 -3790)">
      <circle id="Ellipse_91-16" data-name="Ellipse 91" cx="4" cy="4" r="4" transform="translate(-12280 3814)" fill="#eceaf0"/>
    </g>
    <g transform="translate(12352 -3790)">
      <circle id="Ellipse_91-17" data-name="Ellipse 91" cx="4" cy="4" r="4" transform="translate(-12280 3814)" fill="#eceaf0"/>
    </g>
    <g transform="translate(12376 -3790)">
      <circle id="Ellipse_91-18" data-name="Ellipse 91" cx="4" cy="4" r="4" transform="translate(-12280 3814)" fill="#eceaf0"/>
    </g>
    <g transform="translate(12400 -3790)">
      <circle id="Ellipse_91-19" data-name="Ellipse 91" cx="4" cy="4" r="4" transform="translate(-12280 3814)" fill="#eceaf0"/>
    </g>
    <g transform="translate(12424 -3790)">
      <circle id="Ellipse_91-20" data-name="Ellipse 91" cx="4" cy="4" r="4" transform="translate(-12280 3814)" fill="#eceaf0"/>
    </g>
    <g transform="translate(12448 -3790)">
      <circle id="Ellipse_91-21" data-name="Ellipse 91" cx="4" cy="4" r="4" transform="translate(-12280 3814)" fill="#eceaf0"/>
    </g>
    <g transform="translate(12472 -3790)">
      <circle id="Ellipse_91-22" data-name="Ellipse 91" cx="4" cy="4" r="4" transform="translate(-12280 3814)" fill="#eceaf0"/>
    </g>
    <g transform="translate(12496 -3790)">
      <circle id="Ellipse_91-23" data-name="Ellipse 91" cx="4" cy="4" r="4" transform="translate(-12280 3814)" fill="#eceaf0"/>
    </g>
    <g transform="translate(12520 -3790)">
      <circle id="Ellipse_91-24" data-name="Ellipse 91" cx="4" cy="4" r="4" transform="translate(-12280 3814)" fill="#eceaf0"/>
    </g>
    <g transform="translate(12544 -3790)">
      <circle id="Ellipse_91-25" data-name="Ellipse 91" cx="4" cy="4" r="4" transform="translate(-12280 3814)" fill="#eceaf0"/>
    </g>
    <g transform="translate(12568 -3790)">
      <circle id="Ellipse_91-26" data-name="Ellipse 91" cx="4" cy="4" r="4" transform="translate(-12280 3814)" fill="#eceaf0"/>
    </g>
    <g transform="translate(12280 -3766)">
      <circle id="Ellipse_91-27" data-name="Ellipse 91" cx="4" cy="4" r="4" transform="translate(-12280 3814)" fill="#eceaf0"/>
    </g>
    <g transform="translate(12304 -3766)">
      <circle id="Ellipse_91-28" data-name="Ellipse 91" cx="4" cy="4" r="4" transform="translate(-12280 3814)" fill="#eceaf0"/>
    </g>
    <g transform="translate(12328 -3766)">
      <circle id="Ellipse_91-29" data-name="Ellipse 91" cx="4" cy="4" r="4" transform="translate(-12280 3814)" fill="#eceaf0"/>
    </g>
    <g transform="translate(12352 -3766)">
      <circle id="Ellipse_91-30" data-name="Ellipse 91" cx="4" cy="4" r="4" transform="translate(-12280 3814)" fill="#eceaf0"/>
    </g>
    <g transform="translate(12376 -3766)">
      <circle id="Ellipse_91-31" data-name="Ellipse 91" cx="4" cy="4" r="4" transform="translate(-12280 3814)" fill="#eceaf0"/>
    </g>
    <g transform="translate(12400 -3766)">
      <circle id="Ellipse_91-32" data-name="Ellipse 91" cx="4" cy="4" r="4" transform="translate(-12280 3814)" fill="#eceaf0"/>
    </g>
    <g transform="translate(12424 -3766)">
      <circle id="Ellipse_91-33" data-name="Ellipse 91" cx="4" cy="4" r="4" transform="translate(-12280 3814)" fill="#eceaf0"/>
    </g>
    <g transform="translate(12448 -3766)">
      <circle id="Ellipse_91-34" data-name="Ellipse 91" cx="4" cy="4" r="4" transform="translate(-12280 3814)" fill="#eceaf0"/>
    </g>
    <g transform="translate(12472 -3766)">
      <circle id="Ellipse_91-35" data-name="Ellipse 91" cx="4" cy="4" r="4" transform="translate(-12280 3814)" fill="#eceaf0"/>
    </g>
    <g transform="translate(12496 -3766)">
      <circle id="Ellipse_91-36" data-name="Ellipse 91" cx="4" cy="4" r="4" transform="translate(-12280 3814)" fill="#eceaf0"/>
    </g>
    <g transform="translate(12520 -3766)">
      <circle id="Ellipse_91-37" data-name="Ellipse 91" cx="4" cy="4" r="4" transform="translate(-12280 3814)" fill="#eceaf0"/>
    </g>
    <g transform="translate(12544 -3766)">
      <circle id="Ellipse_91-38" data-name="Ellipse 91" cx="4" cy="4" r="4" transform="translate(-12280 3814)" fill="#eceaf0"/>
    </g>
    <g transform="translate(12568 -3766)">
      <circle id="Ellipse_91-39" data-name="Ellipse 91" cx="4" cy="4" r="4" transform="translate(-12280 3814)" fill="#eceaf0"/>
    </g>
    <g transform="translate(12280 -3742)">
      <circle id="Ellipse_91-40" data-name="Ellipse 91" cx="4" cy="4" r="4" transform="translate(-12280 3814)" fill="#eceaf0"/>
    </g>
    <g transform="translate(12304 -3742)">
      <circle id="Ellipse_91-41" data-name="Ellipse 91" cx="4" cy="4" r="4" transform="translate(-12280 3814)" fill="#eceaf0"/>
    </g>
    <g transform="translate(12328 -3742)">
      <circle id="Ellipse_91-42" data-name="Ellipse 91" cx="4" cy="4" r="4" transform="translate(-12280 3814)" fill="#eceaf0"/>
    </g>
    <g transform="translate(12352 -3742)">
      <circle id="Ellipse_91-43" data-name="Ellipse 91" cx="4" cy="4" r="4" transform="translate(-12280 3814)" fill="#eceaf0"/>
    </g>
    <g transform="translate(12376 -3742)">
      <circle id="Ellipse_91-44" data-name="Ellipse 91" cx="4" cy="4" r="4" transform="translate(-12280 3814)" fill="#eceaf0"/>
    </g>
    <g transform="translate(12400 -3742)">
      <circle id="Ellipse_91-45" data-name="Ellipse 91" cx="4" cy="4" r="4" transform="translate(-12280 3814)" fill="#eceaf0"/>
    </g>
    <g transform="translate(12424 -3742)">
      <circle id="Ellipse_91-46" data-name="Ellipse 91" cx="4" cy="4" r="4" transform="translate(-12280 3814)" fill="#eceaf0"/>
    </g>
    <g transform="translate(12448 -3742)">
      <circle id="Ellipse_91-47" data-name="Ellipse 91" cx="4" cy="4" r="4" transform="translate(-12280 3814)" fill="#eceaf0"/>
    </g>
    <g transform="translate(12472 -3742)">
      <circle id="Ellipse_91-48" data-name="Ellipse 91" cx="4" cy="4" r="4" transform="translate(-12280 3814)" fill="#eceaf0"/>
    </g>
    <g transform="translate(12496 -3742)">
      <circle id="Ellipse_91-49" data-name="Ellipse 91" cx="4" cy="4" r="4" transform="translate(-12280 3814)" fill="#eceaf0"/>
    </g>
    <g transform="translate(12520 -3742)">
      <circle id="Ellipse_91-50" data-name="Ellipse 91" cx="4" cy="4" r="4" transform="translate(-12280 3814)" fill="#eceaf0"/>
    </g>
    <g transform="translate(12544 -3742)">
      <circle id="Ellipse_91-51" data-name="Ellipse 91" cx="4" cy="4" r="4" transform="translate(-12280 3814)" fill="#eceaf0"/>
    </g>
    <g transform="translate(12568 -3742)">
      <circle id="Ellipse_91-52" data-name="Ellipse 91" cx="4" cy="4" r="4" transform="translate(-12280 3814)" fill="#eceaf0"/>
    </g>
    <g transform="translate(12280 -3718)">
      <circle id="Ellipse_91-53" data-name="Ellipse 91" cx="4" cy="4" r="4" transform="translate(-12280 3814)" fill="#eceaf0"/>
    </g>
    <g transform="translate(12304 -3718)">
      <circle id="Ellipse_91-54" data-name="Ellipse 91" cx="4" cy="4" r="4" transform="translate(-12280 3814)" fill="#eceaf0"/>
    </g>
    <g transform="translate(12328 -3718)">
      <circle id="Ellipse_91-55" data-name="Ellipse 91" cx="4" cy="4" r="4" transform="translate(-12280 3814)" fill="#eceaf0"/>
    </g>
    <g transform="translate(12352 -3718)">
      <circle id="Ellipse_91-56" data-name="Ellipse 91" cx="4" cy="4" r="4" transform="translate(-12280 3814)" fill="#eceaf0"/>
    </g>
    <g transform="translate(12376 -3718)">
      <circle id="Ellipse_91-57" data-name="Ellipse 91" cx="4" cy="4" r="4" transform="translate(-12280 3814)" fill="#eceaf0"/>
    </g>
    <g transform="translate(12400 -3718)">
      <circle id="Ellipse_91-58" data-name="Ellipse 91" cx="4" cy="4" r="4" transform="translate(-12280 3814)" fill="#eceaf0"/>
    </g>
    <g transform="translate(12424 -3718)">
      <circle id="Ellipse_91-59" data-name="Ellipse 91" cx="4" cy="4" r="4" transform="translate(-12280 3814)" fill="#eceaf0"/>
    </g>
    <g transform="translate(12448 -3718)">
      <circle id="Ellipse_91-60" data-name="Ellipse 91" cx="4" cy="4" r="4" transform="translate(-12280 3814)" fill="#eceaf0"/>
    </g>
    <g transform="translate(12472 -3718)">
      <circle id="Ellipse_91-61" data-name="Ellipse 91" cx="4" cy="4" r="4" transform="translate(-12280 3814)" fill="#eceaf0"/>
    </g>
    <g transform="translate(12496 -3718)">
      <circle id="Ellipse_91-62" data-name="Ellipse 91" cx="4" cy="4" r="4" transform="translate(-12280 3814)" fill="#eceaf0"/>
    </g>
    <g transform="translate(12520 -3718)">
      <circle id="Ellipse_91-63" data-name="Ellipse 91" cx="4" cy="4" r="4" transform="translate(-12280 3814)" fill="#eceaf0"/>
    </g>
    <g transform="translate(12544 -3718)">
      <circle id="Ellipse_91-64" data-name="Ellipse 91" cx="4" cy="4" r="4" transform="translate(-12280 3814)" fill="#eceaf0"/>
    </g>
    <g transform="translate(12568 -3718)">
      <circle id="Ellipse_91-65" data-name="Ellipse 91" cx="4" cy="4" r="4" transform="translate(-12280 3814)" fill="#eceaf0"/>
    </g>
    <g transform="translate(12280 -3694)">
      <circle id="Ellipse_91-66" data-name="Ellipse 91" cx="4" cy="4" r="4" transform="translate(-12280 3814)" fill="#eceaf0"/>
    </g>
    <g transform="translate(12304 -3694)">
      <circle id="Ellipse_91-67" data-name="Ellipse 91" cx="4" cy="4" r="4" transform="translate(-12280 3814)" fill="#eceaf0"/>
    </g>
    <g transform="translate(12328 -3694)">
      <circle id="Ellipse_91-68" data-name="Ellipse 91" cx="4" cy="4" r="4" transform="translate(-12280 3814)" fill="#eceaf0"/>
    </g>
    <g transform="translate(12352 -3694)">
      <circle id="Ellipse_91-69" data-name="Ellipse 91" cx="4" cy="4" r="4" transform="translate(-12280 3814)" fill="#eceaf0"/>
    </g>
    <g transform="translate(12376 -3694)">
      <circle id="Ellipse_91-70" data-name="Ellipse 91" cx="4" cy="4" r="4" transform="translate(-12280 3814)" fill="#eceaf0"/>
    </g>
    <g transform="translate(12400 -3694)">
      <circle id="Ellipse_91-71" data-name="Ellipse 91" cx="4" cy="4" r="4" transform="translate(-12280 3814)" fill="#eceaf0"/>
    </g>
    <g transform="translate(12424 -3694)">
      <circle id="Ellipse_91-72" data-name="Ellipse 91" cx="4" cy="4" r="4" transform="translate(-12280 3814)" fill="#eceaf0"/>
    </g>
    <g transform="translate(12448 -3694)">
      <circle id="Ellipse_91-73" data-name="Ellipse 91" cx="4" cy="4" r="4" transform="translate(-12280 3814)" fill="#eceaf0"/>
    </g>
    <g transform="translate(12472 -3694)">
      <circle id="Ellipse_91-74" data-name="Ellipse 91" cx="4" cy="4" r="4" transform="translate(-12280 3814)" fill="#eceaf0"/>
    </g>
    <g transform="translate(12496 -3694)">
      <circle id="Ellipse_91-75" data-name="Ellipse 91" cx="4" cy="4" r="4" transform="translate(-12280 3814)" fill="#eceaf0"/>
    </g>
    <g transform="translate(12520 -3694)">
      <circle id="Ellipse_91-76" data-name="Ellipse 91" cx="4" cy="4" r="4" transform="translate(-12280 3814)" fill="#eceaf0"/>
    </g>
    <g transform="translate(12544 -3694)">
      <circle id="Ellipse_91-77" data-name="Ellipse 91" cx="4" cy="4" r="4" transform="translate(-12280 3814)" fill="#eceaf0"/>
    </g>
    <g transform="translate(12568 -3694)">
      <circle id="Ellipse_91-78" data-name="Ellipse 91" cx="4" cy="4" r="4" transform="translate(-12280 3814)" fill="#eceaf0"/>
    </g>
    <g transform="translate(12280 -3670)">
      <circle id="Ellipse_91-79" data-name="Ellipse 91" cx="4" cy="4" r="4" transform="translate(-12280 3814)" fill="#eceaf0"/>
    </g>
    <g transform="translate(12304 -3670)">
      <circle id="Ellipse_91-80" data-name="Ellipse 91" cx="4" cy="4" r="4" transform="translate(-12280 3814)" fill="#eceaf0"/>
    </g>
    <g transform="translate(12328 -3670)">
      <circle id="Ellipse_91-81" data-name="Ellipse 91" cx="4" cy="4" r="4" transform="translate(-12280 3814)" fill="#eceaf0"/>
    </g>
    <g transform="translate(12352 -3670)">
      <circle id="Ellipse_91-82" data-name="Ellipse 91" cx="4" cy="4" r="4" transform="translate(-12280 3814)" fill="#eceaf0"/>
    </g>
    <g transform="translate(12376 -3670)">
      <circle id="Ellipse_91-83" data-name="Ellipse 91" cx="4" cy="4" r="4" transform="translate(-12280 3814)" fill="#eceaf0"/>
    </g>
    <g transform="translate(12400 -3670)">
      <circle id="Ellipse_91-84" data-name="Ellipse 91" cx="4" cy="4" r="4" transform="translate(-12280 3814)" fill="#eceaf0"/>
    </g>
    <g transform="translate(12424 -3670)">
      <circle id="Ellipse_91-85" data-name="Ellipse 91" cx="4" cy="4" r="4" transform="translate(-12280 3814)" fill="#eceaf0"/>
    </g>
    <g transform="translate(12448 -3670)">
      <circle id="Ellipse_91-86" data-name="Ellipse 91" cx="4" cy="4" r="4" transform="translate(-12280 3814)" fill="#eceaf0"/>
    </g>
    <g transform="translate(12472 -3670)">
      <circle id="Ellipse_91-87" data-name="Ellipse 91" cx="4" cy="4" r="4" transform="translate(-12280 3814)" fill="#eceaf0"/>
    </g>
    <g transform="translate(12496 -3670)">
      <circle id="Ellipse_91-88" data-name="Ellipse 91" cx="4" cy="4" r="4" transform="translate(-12280 3814)" fill="#eceaf0"/>
    </g>
    <g transform="translate(12520 -3670)">
      <circle id="Ellipse_91-89" data-name="Ellipse 91" cx="4" cy="4" r="4" transform="translate(-12280 3814)" fill="#eceaf0"/>
    </g>
    <g transform="translate(12544 -3670)">
      <circle id="Ellipse_91-90" data-name="Ellipse 91" cx="4" cy="4" r="4" transform="translate(-12280 3814)" fill="#eceaf0"/>
    </g>
    <g transform="translate(12568 -3670)">
      <circle id="Ellipse_91-91" data-name="Ellipse 91" cx="4" cy="4" r="4" transform="translate(-12280 3814)" fill="#eceaf0"/>
    </g>
  </g>
</svg>
