<svg xmlns="http://www.w3.org/2000/svg" width="15.435" height="15.431" viewBox="0 0 15.435 15.431">
  <path id="instagram-brands" d="M7.644,35.584A3.956,3.956,0,1,0,11.6,39.541,3.95,3.95,0,0,0,7.644,35.584Zm0,6.529a2.572,2.572,0,1,1,2.572-2.572,2.577,2.577,0,0,1-2.572,2.572Zm5.041-6.69a.923.923,0,1,1-.923-.923A.921.921,0,0,1,12.685,35.422Zm2.62.937a4.567,4.567,0,0,0-1.247-3.233,4.6,4.6,0,0,0-3.233-1.247c-1.274-.072-5.093-.072-6.367,0a4.59,4.59,0,0,0-3.233,1.243A4.582,4.582,0,0,0-.021,36.356c-.072,1.274-.072,5.093,0,6.367a4.567,4.567,0,0,0,1.247,3.233A4.6,4.6,0,0,0,4.459,47.2c1.274.072,5.093.072,6.367,0a4.567,4.567,0,0,0,3.233-1.247,4.6,4.6,0,0,0,1.247-3.233C15.378,41.448,15.378,37.633,15.306,36.359Zm-1.646,7.73a2.6,2.6,0,0,1-1.467,1.467,17.007,17.007,0,0,1-4.549.31,17.14,17.14,0,0,1-4.549-.31,2.6,2.6,0,0,1-1.467-1.467,17.007,17.007,0,0,1-.31-4.549,17.139,17.139,0,0,1,.31-4.549A2.6,2.6,0,0,1,3.1,33.525a17.007,17.007,0,0,1,4.549-.31,17.14,17.14,0,0,1,4.549.31,2.6,2.6,0,0,1,1.467,1.467,17.007,17.007,0,0,1,.31,4.549A17,17,0,0,1,13.66,44.089Z" transform="translate(0.075 -31.825)" fill="#251b30"/>
</svg>
