<svg xmlns="http://www.w3.org/2000/svg" width="66.926" height="39.273" viewBox="0 0 66.926 39.273">
  <g id="image-_5_" transform="translate(-130.7 538)">
    <path id="Path_5111" data-name="Path 5111" d="M336.567-537.973c0,.027-.013,8.86-.04,19.65l-.027,19.6h8.109V-538h-4.021C338.377-538,336.567-537.987,336.567-537.973Z" transform="translate(-178.215)" fill="#2b0157"/>
    <path id="Path_5112" data-name="Path 5112" d="M420.027-533.885l.04,4.128,14.047.04,14.034.027V-538H420Z" transform="translate(-250.523)" fill="#2b0157"/>
    <path id="Path_5113" data-name="Path 5113" d="M153.942-498.968c-.389.576-.911,1.34-1.18,1.716s-1.287,1.85-2.292,3.284-2.52,3.606-3.378,4.825c-1.421,2.024-4.437,6.34-10.482,15.012-4.758,6.836-5.375,7.721-5.643,8l-.268.308h10.04l.657-.938c.375-.523.938-1.327,1.273-1.8s.831-1.18,1.113-1.568,1.113-1.568,1.85-2.6,1.622-2.265,1.944-2.748.844-1.206,1.139-1.609.737-1.045.992-1.407,1.474-2.118,2.734-3.887l2.279-3.217.013-2.761c0-1.515.04-4.758.094-7.2a32.027,32.027,0,0,0-.04-4.45A4.424,4.424,0,0,0,153.942-498.968Z" transform="translate(0 -32.907)" fill="#2b0157"/>
    <path id="Path_5114" data-name="Path 5114" d="M422-412.979v4.021h21.312V-417H422Z" transform="translate(-252.254 -104.781)" fill="#2b0157"/>
    <path id="Path_5115" data-name="Path 5115" d="M421-293.515v3.485h7.372V-297H421Z" transform="translate(-251.388 -208.697)" fill="#2b0157"/>
  </g>
</svg>
