<svg xmlns="http://www.w3.org/2000/svg" width="188" height="110.323" viewBox="0 0 188 110.323">
  <g id="image-_5_" transform="translate(-130.7 538)">
    <path id="Path_5111" data-name="Path 5111" d="M336.688-537.924c0,.075-.038,24.888-.113,55.2l-.075,55.048h22.78V-538h-11.3C341.771-538,336.688-537.962,336.688-537.924Z" transform="translate(-128.311)" fill="#2b0157"/>
    <path id="Path_5112" data-name="Path 5112" d="M420.075-526.441l.113,11.6,39.46.113,39.422.075V-538H420Z" transform="translate(-180.371)" fill="#2b0157"/>
    <path id="Path_5113" data-name="Path 5113" d="M195.99-497.1c-1.092,1.619-2.56,3.765-3.313,4.82-.715,1.016-3.615,5.2-6.439,9.225s-7.079,10.129-9.489,13.555c-3.991,5.686-12.463,17.81-29.445,42.171-13.367,19.2-15.1,21.688-15.852,22.479l-.753.866h28.2l1.845-2.636c1.054-1.468,2.636-3.728,3.577-5.045s2.335-3.313,3.125-4.405c.753-1.129,3.125-4.405,5.2-7.3s4.556-6.363,5.46-7.719c.941-1.356,2.372-3.389,3.2-4.518s2.071-2.937,2.786-3.953c.678-1.054,4.142-5.949,7.681-10.919l6.4-9.037.038-7.757c0-4.255.113-13.367.264-20.22.151-7.945.113-12.5-.113-12.5A12.428,12.428,0,0,0,195.99-497.1Z" transform="translate(0 -23.692)" fill="#2b0157"/>
    <path id="Path_5114" data-name="Path 5114" d="M422-405.7v11.3h59.868V-417H422Z" transform="translate(-181.617 -75.44)" fill="#2b0157"/>
    <path id="Path_5115" data-name="Path 5115" d="M421-287.21v9.79h20.709V-297H421Z" transform="translate(-180.994 -150.257)" fill="#2b0157"/>
  </g>
</svg>
