<svg id="Group_2868" data-name="Group 2868" xmlns="http://www.w3.org/2000/svg" width="14.404" height="11.699" viewBox="0 0 14.404 11.699">
  <path id="Icon_awesome-twitter" data-name="Icon awesome-twitter" d="M12.923,6.3c.009.128.009.256.009.384a8.342,8.342,0,0,1-8.4,8.4A8.342,8.342,0,0,1,0,13.754a6.106,6.106,0,0,0,.713.037A5.912,5.912,0,0,0,4.378,12.53a2.957,2.957,0,0,1-2.76-2.047,3.723,3.723,0,0,0,.558.046,3.122,3.122,0,0,0,.777-.1A2.952,2.952,0,0,1,.585,7.53V7.494a2.973,2.973,0,0,0,1.334.375A2.957,2.957,0,0,1,1.005,3.92,8.391,8.391,0,0,0,7.092,7.009a3.333,3.333,0,0,1-.073-.676,2.955,2.955,0,0,1,5.109-2.02A5.812,5.812,0,0,0,14,3.6a2.944,2.944,0,0,1-1.3,1.627,5.918,5.918,0,0,0,1.7-.457A6.346,6.346,0,0,1,12.923,6.3Z" transform="translate(0 -3.381)" fill="#251b30"/>
</svg>
