<svg xmlns="http://www.w3.org/2000/svg" width="12.379" height="12.379" viewBox="0 0 12.379 12.379">
  <g id="noun_Close_1984792" transform="translate(-145.25 -145.25)">
    <g id="Group_2963" data-name="Group 2963" transform="translate(145.25 145.25)">
      <path id="Path_5140" data-name="Path 5140" d="M145.333,146.557l1.223-1.223a.282.282,0,0,1,.4,0l4.471,4.471c1.49-1.49,3-2.981,4.493-4.471a.282.282,0,0,1,.4,0c.4.4.8.823,1.223,1.223a.282.282,0,0,1,0,.4l-4.471,4.471c1.49,1.49,2.981,3,4.471,4.493a.282.282,0,0,1,0,.4c-.423.4-.823.8-1.223,1.223a.282.282,0,0,1-.4,0c-1.49-1.49-3-2.981-4.493-4.471l-4.471,4.471a.282.282,0,0,1-.4,0c-.4-.423-.823-.823-1.223-1.223a.282.282,0,0,1,0-.4c1.49-1.49,2.981-3,4.471-4.493l-4.471-4.471A.282.282,0,0,1,145.333,146.557Z" transform="translate(-145.25 -145.25)" fill="#939aad" fill-rule="evenodd"/>
    </g>
  </g>
</svg>
